Coordinates
version=1
nRows=8
nColumns=40
inDegrees=yes

Units are S.I. units (second, meters, Newtons, ...)
Angles are in degrees.

endheader
time	pelvis_tilt	pelvis_list	pelvis_rotation	pelvis_tx	pelvis_ty	pelvis_tz	hip_flexion_r	hip_adduction_r	hip_rotation_r	knee_angle_r	knee_angle_r_beta	ankle_angle_r	subtalar_angle_r	mtp_angle_r	hip_flexion_l	hip_adduction_l	hip_rotation_l	knee_angle_l	knee_angle_l_beta	ankle_angle_l	subtalar_angle_l	mtp_angle_l	lumbar_extension	lumbar_bending	lumbar_rotation	arm_flex_r	arm_add_r	arm_rot_r	elbow_flex_r	pro_sup_r	wrist_flex_r	wrist_dev_r	arm_flex_l	arm_add_l	arm_rot_l	elbow_flex_l	pro_sup_l	wrist_flex_l	wrist_dev_l
      5.25000000	     -3.73933585	     27.71567064	     77.25963660	      0.52023081	      1.00621466	     -1.06165686	    -19.15755217	    -14.01955473	      9.23210909	     59.23480399	      1.03384236	    -10.46523818	      0.00000000	      0.00000000	    -17.10731445	      8.81209575	    -15.37649970	     10.62907304	      0.18551232	      8.72185997	      0.00000000	      0.00000000	    -38.98887340	     -9.26009668	      6.09136618	      4.96414053	     -9.75911364	     -1.98943703	    140.24046093	     86.01977775	      0.00000000	      0.00000000	      0.37851143	     -7.34206952	     -4.71722693	    139.44320468	     80.04921287	      0.00000000	      0.00000000
      5.26000000	     -3.35364307	     27.45948076	     77.06522948	      0.51952445	      1.00784010	     -1.06096374	    -16.92206260	    -12.82963384	     10.17035853	     61.06155460	      1.06572517	     -7.50943763	      0.00000000	      0.00000000	    -17.92335295	      8.70323066	    -15.22901518	     10.14460465	      0.17705675	      9.06992778	      0.00000000	      0.00000000	    -38.93516294	     -8.87808007	      5.96166372	      4.99770047	     -9.45677049	     -1.83659131	    140.12972864	     85.93088152	      0.00000000	      0.00000000	      0.74524754	     -7.89215989	     -4.74245688	    139.56031127	     80.02805077	      0.00000000	      0.00000000
      5.27000000	     -2.97676598	     27.27492212	     76.97072224	      0.51872675	      1.00960928	     -1.06019561	    -14.89168582	    -11.66760234	     10.84131506	     62.38765258	      1.08886995	     -5.48405324	      0.00000000	      0.00000000	    -18.81294578	      8.60929191	    -14.75790110	      9.66041905	      0.16860612	      9.30566688	      0.00000000	      0.00000000	    -38.98504239	     -8.47298988	      5.76078489	      5.04890658	     -9.18247944	     -1.72113138	    140.06192841	     85.81770341	      0.00000000	      0.00000000	      1.12357378	     -8.48437761	     -4.67480122	    139.72850833	     79.97751366	      0.00000000	      0.00000000
      5.28000000	     -2.81881292	     26.72052615	     76.56354731	      0.51807192	      1.01046463	     -1.05943448	    -12.20056191	    -10.87605274	     11.67697903	     63.60117790	      1.11004996	     -3.45396864	      0.00000000	      0.00000000	    -19.19784253	      8.73215791	    -15.06435654	      9.22424843	      0.16099351	      9.62935075	      0.00000000	      0.00000000	    -38.54139138	     -8.35689430	      5.85768343	      5.03453335	     -9.01969636	     -1.68276649	    139.95531613	     86.04478425	      0.00000000	      0.00000000	      1.45505470	     -8.91200179	     -4.55937831	    139.68753966	     80.10729129	      0.00000000	      0.00000000
      5.29000000	     -2.42721561	     26.44974281	     76.52176755	      0.51717950	      1.01207882	     -1.05898735	    -10.33400907	     -9.82922641	     11.91148302	     63.95542779	      1.11623279	     -1.89865353	      0.00000000	      0.00000000	    -20.07062458	      8.58886165	    -14.74656303	      8.63268541	      0.15066878	      9.92714717	      0.00000000	      0.00000000	    -38.45962544	     -7.85727009	      5.64006558	      4.99721105	     -8.86210341	     -1.52483762	    139.88353219	     85.95674527	      0.00000000	      0.00000000	      1.71698568	     -9.32067638	     -4.47170894	    139.71572058	     80.07726296	      0.00000000	      0.00000000
      5.30000000	     -2.07240304	     26.15201685	     76.36837998	      0.51648958	      1.01358475	     -1.05846415	     -8.45163454	     -8.84727319	     12.17552467	     64.02489424	      1.11744521	     -0.24314030	      0.00000000	      0.00000000	    -20.93805875	      8.52786383	    -14.57013339	      7.96067540	      0.13894000	     10.16460787	      0.00000000	      0.00000000	    -38.33716961	     -7.45248250	      5.52123787	      4.96413427	     -8.74876508	     -1.41279077	    139.83144730	     85.93011582	      0.00000000	      0.00000000	      1.95930859	     -9.73963235	     -4.35906577	    139.75716368	     80.05469556	      0.00000000	      0.00000000
      5.31000000	     -1.68061799	     25.75907883	     76.17407792	      0.51607211	      1.01486477	     -1.05787026	     -6.57135168	     -7.81702672	     12.40699151	     63.69989332	      1.11177287	      0.99060886	      0.00000000	      0.00000000	    -21.73697292	      8.41671861	    -14.35773210	      7.23702676	      0.12630994	     10.35581293	      0.00000000	      0.00000000	    -38.13742798	     -7.04349782	      5.45039013	      4.94107770	     -8.62339575	     -1.30682736	    139.77022256	     85.93551415	      0.00000000	      0.00000000	      2.18788522	    -10.17865644	     -4.24622736	    139.82524285	     80.03619150	      0.00000000	      0.00000000
      5.32000000	     -1.32594200	     25.30534648	     76.09712442	      0.51546032	      1.01591384	     -1.05743942	     -4.81436363	     -6.80382237	     12.53373820	     62.90897481	      1.09796874	      2.01464040	      0.00000000	      0.00000000	    -22.48496846	      8.28764672	    -14.27077916	      6.48351657	      0.11315871	     10.54220929	      0.00000000	      0.00000000	    -37.87343862	     -6.58265451	      5.29601116	      4.87446493	     -8.55826598	     -1.16294780	    139.74414427	     85.92015606	      0.00000000	      0.00000000	      2.35711446	    -10.53781187	     -4.14670848	    139.89940745	     80.00566312	      0.00000000	      0.00000000
